<mxfile host="Electron" agent="Mozilla/5.0 (Windows NT 10.0; Win64; x64) AppleWebKit/537.36 (KHTML, like Gecko) draw.io/26.2.15 Chrome/134.0.6998.205 Electron/35.2.1 Safari/537.36" version="26.2.15">
  <diagram name="Page-1" id="r9Z6WFOCfEUTvJeSV6sL">
    <mxGraphModel dx="1654" dy="854" grid="1" gridSize="10" guides="1" tooltips="1" connect="1" arrows="1" fold="1" page="1" pageScale="1" pageWidth="827" pageHeight="1169" math="0" shadow="0">
      <root>
        <mxCell id="0" />
        <mxCell id="1" parent="0" />
        <mxCell id="rLXrD8BKvVp7syMXNVko-1" value="" style="rounded=0;whiteSpace=wrap;html=1;strokeColor=none;fillColor=#f5f5f5;fontColor=#333333;" vertex="1" parent="1">
          <mxGeometry x="10" y="150" width="1024" height="710" as="geometry" />
        </mxCell>
        <mxCell id="rLXrD8BKvVp7syMXNVko-2" value="&lt;font style=&quot;font-size: 19px; color: rgb(255, 255, 255);&quot; face=&quot;Times New Roman&quot;&gt;Human Resource Management System&lt;/font&gt;" style="rounded=0;whiteSpace=wrap;html=1;strokeColor=none;fillColor=#1BA1E2;" vertex="1" parent="1">
          <mxGeometry x="10" y="90" width="1024" height="60" as="geometry" />
        </mxCell>
        <mxCell id="rLXrD8BKvVp7syMXNVko-4" value="" style="rounded=0;whiteSpace=wrap;html=1;fillColor=#dae8fc;strokeColor=none;" vertex="1" parent="1">
          <mxGeometry x="11" y="150" width="160" height="710" as="geometry" />
        </mxCell>
        <mxCell id="rLXrD8BKvVp7syMXNVko-16" style="edgeStyle=orthogonalEdgeStyle;rounded=0;orthogonalLoop=1;jettySize=auto;html=1;exitX=0.5;exitY=1;exitDx=0;exitDy=0;" edge="1" parent="1">
          <mxGeometry relative="1" as="geometry">
            <mxPoint x="676" y="320" as="sourcePoint" />
            <mxPoint x="676" y="320" as="targetPoint" />
          </mxGeometry>
        </mxCell>
        <mxCell id="rLXrD8BKvVp7syMXNVko-33" value="&lt;font style=&quot;font-size: 16px; color: rgb(255, 255, 255);&quot; face=&quot;Times New Roman&quot;&gt;Attendance&lt;/font&gt;" style="rounded=0;whiteSpace=wrap;html=1;strokeColor=none;fillColor=#1BA1E2;align=center;" vertex="1" parent="1">
          <mxGeometry x="20" y="176" width="140" height="50" as="geometry" />
        </mxCell>
        <mxCell id="rLXrD8BKvVp7syMXNVko-34" value="&lt;font style=&quot;font-size: 16px; color: rgb(255, 255, 255);&quot; face=&quot;Times New Roman&quot;&gt;Request Leave&lt;/font&gt;" style="rounded=0;whiteSpace=wrap;html=1;strokeColor=none;fillColor=#1BA1E2;align=center;" vertex="1" parent="1">
          <mxGeometry x="20" y="240" width="140" height="50" as="geometry" />
        </mxCell>
        <mxCell id="rLXrD8BKvVp7syMXNVko-96" value="" style="rounded=0;whiteSpace=wrap;html=1;shadow=1;strokeColor=none;fillColor=#DAE8FC;" vertex="1" parent="1">
          <mxGeometry x="180" y="170" width="840" height="650" as="geometry" />
        </mxCell>
        <mxCell id="rLXrD8BKvVp7syMXNVko-38" value="&lt;font face=&quot;Times New Roman&quot; color=&quot;#ffffff&quot;&gt;&lt;span style=&quot;font-size: 16px;&quot;&gt;&amp;nbsp;Employee Leave&lt;/span&gt;&lt;/font&gt;" style="rounded=0;whiteSpace=wrap;html=1;strokeColor=none;fillColor=#1BA1E2;align=center;" vertex="1" parent="1">
          <mxGeometry x="20" y="300" width="140" height="50" as="geometry" />
        </mxCell>
        <mxCell id="rLXrD8BKvVp7syMXNVko-40" value="&lt;font face=&quot;Times New Roman&quot; color=&quot;#ffffff&quot;&gt;&lt;span style=&quot;font-size: 16px;&quot;&gt;Add Employee&lt;/span&gt;&lt;/font&gt;" style="rounded=0;whiteSpace=wrap;html=1;strokeColor=none;fillColor=#1BA1E2;align=center;" vertex="1" parent="1">
          <mxGeometry x="20" y="360" width="140" height="50" as="geometry" />
        </mxCell>
        <mxCell id="rLXrD8BKvVp7syMXNVko-41" value="&lt;font face=&quot;Times New Roman&quot; color=&quot;#ffffff&quot;&gt;&lt;span style=&quot;font-size: 16px;&quot;&gt;View Employee&lt;/span&gt;&lt;/font&gt;" style="rounded=0;whiteSpace=wrap;html=1;strokeColor=none;fillColor=#1BA1E2;align=center;" vertex="1" parent="1">
          <mxGeometry x="20" y="420" width="140" height="50" as="geometry" />
        </mxCell>
        <mxCell id="rLXrD8BKvVp7syMXNVko-42" value="&lt;font face=&quot;Times New Roman&quot; color=&quot;#ffffff&quot;&gt;&lt;span style=&quot;font-size: 16px;&quot;&gt;Report&lt;/span&gt;&lt;/font&gt;" style="rounded=0;whiteSpace=wrap;html=1;strokeColor=none;fillColor=#1BA1E2;align=center;" vertex="1" parent="1">
          <mxGeometry x="20" y="480" width="140" height="50" as="geometry" />
        </mxCell>
        <mxCell id="rLXrD8BKvVp7syMXNVko-43" value="" style="rounded=0;whiteSpace=wrap;html=1;shadow=1;" vertex="1" parent="1">
          <mxGeometry x="190" y="287" width="270" height="30" as="geometry" />
        </mxCell>
        <mxCell id="rLXrD8BKvVp7syMXNVko-44" value="Employee Name" style="text;html=1;align=left;verticalAlign=middle;whiteSpace=wrap;rounded=0;fontSize=16;fontFamily=Times New Roman;" vertex="1" parent="1">
          <mxGeometry x="479" y="259" width="120" height="30" as="geometry" />
        </mxCell>
        <mxCell id="rLXrD8BKvVp7syMXNVko-45" value="" style="rounded=0;whiteSpace=wrap;html=1;shadow=1;" vertex="1" parent="1">
          <mxGeometry x="478" y="288" width="270" height="30" as="geometry" />
        </mxCell>
        <mxCell id="rLXrD8BKvVp7syMXNVko-52" value="Employee Picture" style="text;html=1;align=left;verticalAlign=middle;whiteSpace=wrap;rounded=0;fontSize=16;fontFamily=Times New Roman;" vertex="1" parent="1">
          <mxGeometry x="764" y="256" width="120" height="30" as="geometry" />
        </mxCell>
        <mxCell id="rLXrD8BKvVp7syMXNVko-53" value="" style="rounded=0;whiteSpace=wrap;html=1;" vertex="1" parent="1">
          <mxGeometry x="766" y="288" width="244" height="30" as="geometry" />
        </mxCell>
        <mxCell id="rLXrD8BKvVp7syMXNVko-54" value="&lt;font style=&quot;font-size: 14px;&quot; face=&quot;Times New Roman&quot;&gt;Choose File&lt;/font&gt;" style="text;html=1;align=center;verticalAlign=middle;whiteSpace=wrap;rounded=0;shadow=1;" vertex="1" parent="1">
          <mxGeometry x="766" y="290" width="100" height="30" as="geometry" />
        </mxCell>
        <mxCell id="rLXrD8BKvVp7syMXNVko-55" value="" style="rounded=1;whiteSpace=wrap;html=1;fillColor=#1BA1E2;" vertex="1" parent="1">
          <mxGeometry x="920" y="287" width="90" height="30" as="geometry" />
        </mxCell>
        <mxCell id="rLXrD8BKvVp7syMXNVko-56" value="&lt;font style=&quot;font-size: 14px; color: rgb(255, 255, 255);&quot; face=&quot;Times New Roman&quot;&gt;Browse&lt;/font&gt;" style="text;html=1;align=center;verticalAlign=middle;whiteSpace=wrap;rounded=0;fillColor=none;" vertex="1" parent="1">
          <mxGeometry x="935" y="290" width="60" height="30" as="geometry" />
        </mxCell>
        <mxCell id="rLXrD8BKvVp7syMXNVko-57" value="" style="rounded=0;whiteSpace=wrap;html=1;shadow=1;" vertex="1" parent="1">
          <mxGeometry x="190" y="416" width="270" height="30" as="geometry" />
        </mxCell>
        <mxCell id="rLXrD8BKvVp7syMXNVko-58" value="Date Of Birth" style="text;html=1;align=left;verticalAlign=middle;whiteSpace=wrap;rounded=0;fontSize=16;fontFamily=Times New Roman;" vertex="1" parent="1">
          <mxGeometry x="190" y="384" width="100" height="30" as="geometry" />
        </mxCell>
        <mxCell id="rLXrD8BKvVp7syMXNVko-61" value="Gender" style="text;html=1;align=left;verticalAlign=middle;whiteSpace=wrap;rounded=0;fontSize=16;fontFamily=Times New Roman;" vertex="1" parent="1">
          <mxGeometry x="190" y="322" width="100" height="30" as="geometry" />
        </mxCell>
        <mxCell id="rLXrD8BKvVp7syMXNVko-62" value="" style="ellipse;whiteSpace=wrap;html=1;aspect=fixed;" vertex="1" parent="1">
          <mxGeometry x="190" y="362" width="10" height="10" as="geometry" />
        </mxCell>
        <mxCell id="rLXrD8BKvVp7syMXNVko-64" value="Male" style="text;html=1;align=left;verticalAlign=middle;whiteSpace=wrap;rounded=0;fontSize=16;fontFamily=Times New Roman;" vertex="1" parent="1">
          <mxGeometry x="202" y="352" width="100" height="30" as="geometry" />
        </mxCell>
        <mxCell id="rLXrD8BKvVp7syMXNVko-67" value="" style="ellipse;whiteSpace=wrap;html=1;aspect=fixed;" vertex="1" parent="1">
          <mxGeometry x="245" y="363" width="10" height="10" as="geometry" />
        </mxCell>
        <mxCell id="rLXrD8BKvVp7syMXNVko-73" value="NRC" style="text;html=1;align=left;verticalAlign=middle;whiteSpace=wrap;rounded=0;fontSize=16;fontFamily=Times New Roman;shadow=1;" vertex="1" parent="1">
          <mxGeometry x="766" y="317" width="120" height="30" as="geometry" />
        </mxCell>
        <mxCell id="rLXrD8BKvVp7syMXNVko-74" value="&lt;font face=&quot;Times New Roman&quot; style=&quot;font-size: 16px;&quot;&gt;9/&lt;/font&gt;" style="rounded=0;whiteSpace=wrap;html=1;align=left;shadow=1;" vertex="1" parent="1">
          <mxGeometry x="766" y="347" width="31" height="30" as="geometry" />
        </mxCell>
        <mxCell id="rLXrD8BKvVp7syMXNVko-75" value="&lt;font style=&quot;font-size: 14px;&quot; face=&quot;Times New Roman&quot;&gt;TATHANA&lt;/font&gt;" style="rounded=0;whiteSpace=wrap;html=1;align=left;shadow=1;" vertex="1" parent="1">
          <mxGeometry x="800" y="347" width="80" height="30" as="geometry" />
        </mxCell>
        <mxCell id="rLXrD8BKvVp7syMXNVko-76" value="&lt;font style=&quot;font-size: 14px;&quot;&gt;(N)&lt;/font&gt;" style="rounded=0;whiteSpace=wrap;html=1;align=left;shadow=1;" vertex="1" parent="1">
          <mxGeometry x="883" y="347" width="32" height="30" as="geometry" />
        </mxCell>
        <mxCell id="rLXrD8BKvVp7syMXNVko-77" value="&lt;font style=&quot;font-size: 16px;&quot; face=&quot;Times New Roman&quot;&gt;238219&lt;/font&gt;" style="rounded=0;whiteSpace=wrap;html=1;shadow=1;" vertex="1" parent="1">
          <mxGeometry x="919" y="347" width="91" height="30" as="geometry" />
        </mxCell>
        <mxCell id="rLXrD8BKvVp7syMXNVko-78" value="" style="strokeWidth=2;html=1;shape=mxgraph.flowchart.merge_or_storage;whiteSpace=wrap;fillColor=#1BA1E2;strokeColor=none;" vertex="1" parent="1">
          <mxGeometry x="783" y="357" width="10" height="10" as="geometry" />
        </mxCell>
        <mxCell id="rLXrD8BKvVp7syMXNVko-79" value="" style="strokeWidth=2;html=1;shape=mxgraph.flowchart.merge_or_storage;whiteSpace=wrap;fillColor=#1BA1E2;strokeColor=none;" vertex="1" parent="1">
          <mxGeometry x="868" y="355" width="10" height="10" as="geometry" />
        </mxCell>
        <mxCell id="rLXrD8BKvVp7syMXNVko-83" value="" style="strokeWidth=2;html=1;shape=mxgraph.flowchart.merge_or_storage;whiteSpace=wrap;fillColor=#1BA1E2;strokeColor=none;" vertex="1" parent="1">
          <mxGeometry x="905" y="357" width="10" height="10" as="geometry" />
        </mxCell>
        <mxCell id="rLXrD8BKvVp7syMXNVko-84" value="Marital Status" style="text;html=1;align=left;verticalAlign=middle;whiteSpace=wrap;rounded=0;fontSize=16;fontFamily=Times New Roman;" vertex="1" parent="1">
          <mxGeometry x="478" y="320" width="100" height="30" as="geometry" />
        </mxCell>
        <mxCell id="rLXrD8BKvVp7syMXNVko-85" value="" style="ellipse;whiteSpace=wrap;html=1;aspect=fixed;" vertex="1" parent="1">
          <mxGeometry x="488" y="356" width="10" height="10" as="geometry" />
        </mxCell>
        <mxCell id="rLXrD8BKvVp7syMXNVko-89" value="Single" style="text;html=1;align=left;verticalAlign=middle;whiteSpace=wrap;rounded=0;fontSize=16;fontFamily=Times New Roman;" vertex="1" parent="1">
          <mxGeometry x="502" y="347" width="100" height="30" as="geometry" />
        </mxCell>
        <mxCell id="rLXrD8BKvVp7syMXNVko-91" value="" style="ellipse;whiteSpace=wrap;html=1;aspect=fixed;" vertex="1" parent="1">
          <mxGeometry x="558" y="357" width="10" height="10" as="geometry" />
        </mxCell>
        <mxCell id="rLXrD8BKvVp7syMXNVko-94" value="Married" style="text;html=1;align=left;verticalAlign=middle;whiteSpace=wrap;rounded=0;fontSize=16;fontFamily=Times New Roman;" vertex="1" parent="1">
          <mxGeometry x="573" y="347" width="100" height="30" as="geometry" />
        </mxCell>
        <mxCell id="rLXrD8BKvVp7syMXNVko-7" value="Employee ID" style="text;html=1;align=left;verticalAlign=middle;whiteSpace=wrap;rounded=0;fontSize=16;fontFamily=Times New Roman;" vertex="1" parent="1">
          <mxGeometry x="190" y="250" width="100" height="30" as="geometry" />
        </mxCell>
        <mxCell id="rLXrD8BKvVp7syMXNVko-106" value="Position" style="text;html=1;align=left;verticalAlign=middle;whiteSpace=wrap;rounded=0;fontSize=16;fontFamily=Times New Roman;" vertex="1" parent="1">
          <mxGeometry x="478" y="379" width="100" height="30" as="geometry" />
        </mxCell>
        <mxCell id="rLXrD8BKvVp7syMXNVko-107" value="" style="rounded=0;whiteSpace=wrap;html=1;shadow=1;" vertex="1" parent="1">
          <mxGeometry x="478" y="416" width="270" height="30" as="geometry" />
        </mxCell>
        <mxCell id="rLXrD8BKvVp7syMXNVko-108" value="Department" style="text;html=1;align=left;verticalAlign=middle;whiteSpace=wrap;rounded=0;fontSize=16;fontFamily=Times New Roman;" vertex="1" parent="1">
          <mxGeometry x="767" y="379" width="100" height="30" as="geometry" />
        </mxCell>
        <mxCell id="rLXrD8BKvVp7syMXNVko-109" value="" style="rounded=0;whiteSpace=wrap;html=1;shadow=1;" vertex="1" parent="1">
          <mxGeometry x="767" y="416" width="243" height="30" as="geometry" />
        </mxCell>
        <mxCell id="rLXrD8BKvVp7syMXNVko-110" value="Education" style="text;html=1;align=left;verticalAlign=middle;whiteSpace=wrap;rounded=0;fontSize=16;fontFamily=Times New Roman;" vertex="1" parent="1">
          <mxGeometry x="765" y="455" width="100" height="30" as="geometry" />
        </mxCell>
        <mxCell id="rLXrD8BKvVp7syMXNVko-111" value="" style="rounded=0;whiteSpace=wrap;html=1;shadow=1;" vertex="1" parent="1">
          <mxGeometry x="766" y="481" width="244" height="30" as="geometry" />
        </mxCell>
        <mxCell id="rLXrD8BKvVp7syMXNVko-112" value="Hired Date" style="text;html=1;align=left;verticalAlign=middle;whiteSpace=wrap;rounded=0;fontSize=16;fontFamily=Times New Roman;" vertex="1" parent="1">
          <mxGeometry x="190" y="450" width="100" height="30" as="geometry" />
        </mxCell>
        <mxCell id="rLXrD8BKvVp7syMXNVko-114" value="" style="rounded=0;whiteSpace=wrap;html=1;shadow=1;align=left;" vertex="1" parent="1">
          <mxGeometry x="190" y="480" width="270" height="30" as="geometry" />
        </mxCell>
        <mxCell id="rLXrD8BKvVp7syMXNVko-117" value="Resign Date" style="text;html=1;align=left;verticalAlign=middle;whiteSpace=wrap;rounded=0;fontSize=16;fontFamily=Times New Roman;" vertex="1" parent="1">
          <mxGeometry x="478" y="454" width="100" height="30" as="geometry" />
        </mxCell>
        <mxCell id="rLXrD8BKvVp7syMXNVko-118" value="&lt;font face=&quot;Times New Roman&quot;&gt;&lt;span style=&quot;font-size: 16px;&quot;&gt;N/A(Currently Employee)&lt;/span&gt;&lt;/font&gt;" style="rounded=0;whiteSpace=wrap;html=1;shadow=1;align=left;" vertex="1" parent="1">
          <mxGeometry x="478" y="481" width="268" height="30" as="geometry" />
        </mxCell>
        <mxCell id="rLXrD8BKvVp7syMXNVko-119" value="&lt;font face=&quot;Times New Roman&quot; color=&quot;#ffffff&quot;&gt;&lt;span style=&quot;font-size: 16px;&quot;&gt;View Profile&lt;/span&gt;&lt;/font&gt;" style="rounded=0;whiteSpace=wrap;html=1;strokeColor=none;fillColor=#1BA1E2;align=center;" vertex="1" parent="1">
          <mxGeometry x="20" y="540" width="140" height="50" as="geometry" />
        </mxCell>
        <mxCell id="rLXrD8BKvVp7syMXNVko-120" value="Business PhoneNo." style="text;html=1;align=left;verticalAlign=middle;whiteSpace=wrap;rounded=0;fontSize=16;fontFamily=Times New Roman;" vertex="1" parent="1">
          <mxGeometry x="190" y="520" width="140" height="30" as="geometry" />
        </mxCell>
        <mxCell id="rLXrD8BKvVp7syMXNVko-121" value="" style="rounded=0;whiteSpace=wrap;html=1;shadow=1;align=left;" vertex="1" parent="1">
          <mxGeometry x="190" y="550" width="270" height="30" as="geometry" />
        </mxCell>
        <mxCell id="rLXrD8BKvVp7syMXNVko-122" value="Personal PhoneNo." style="text;html=1;align=left;verticalAlign=middle;whiteSpace=wrap;rounded=0;fontSize=16;fontFamily=Times New Roman;" vertex="1" parent="1">
          <mxGeometry x="190" y="589" width="140" height="30" as="geometry" />
        </mxCell>
        <mxCell id="rLXrD8BKvVp7syMXNVko-123" value="" style="rounded=0;whiteSpace=wrap;html=1;shadow=1;align=left;" vertex="1" parent="1">
          <mxGeometry x="190" y="619" width="270" height="30" as="geometry" />
        </mxCell>
        <mxCell id="rLXrD8BKvVp7syMXNVko-124" value="Personal Email" style="text;html=1;align=left;verticalAlign=middle;whiteSpace=wrap;rounded=0;fontSize=16;fontFamily=Times New Roman;" vertex="1" parent="1">
          <mxGeometry x="479" y="521" width="140" height="30" as="geometry" />
        </mxCell>
        <mxCell id="rLXrD8BKvVp7syMXNVko-125" value="" style="rounded=0;whiteSpace=wrap;html=1;shadow=1;align=left;" vertex="1" parent="1">
          <mxGeometry x="479" y="550" width="270" height="30" as="geometry" />
        </mxCell>
        <mxCell id="rLXrD8BKvVp7syMXNVko-126" value="Business Email" style="text;html=1;align=left;verticalAlign=middle;whiteSpace=wrap;rounded=0;fontSize=16;fontFamily=Times New Roman;" vertex="1" parent="1">
          <mxGeometry x="478" y="589" width="140" height="30" as="geometry" />
        </mxCell>
        <mxCell id="rLXrD8BKvVp7syMXNVko-127" value="" style="rounded=0;whiteSpace=wrap;html=1;shadow=1;align=left;" vertex="1" parent="1">
          <mxGeometry x="479" y="619" width="270" height="30" as="geometry" />
        </mxCell>
        <mxCell id="rLXrD8BKvVp7syMXNVko-128" value="Current Address" style="text;html=1;align=left;verticalAlign=middle;whiteSpace=wrap;rounded=0;fontSize=16;fontFamily=Times New Roman;" vertex="1" parent="1">
          <mxGeometry x="767" y="521" width="140" height="30" as="geometry" />
        </mxCell>
        <mxCell id="rLXrD8BKvVp7syMXNVko-129" value="" style="rounded=0;whiteSpace=wrap;html=1;shadow=1;align=left;" vertex="1" parent="1">
          <mxGeometry x="767" y="550" width="243" height="30" as="geometry" />
        </mxCell>
        <mxCell id="rLXrD8BKvVp7syMXNVko-130" value="Permanent Address" style="text;html=1;align=left;verticalAlign=middle;whiteSpace=wrap;rounded=0;fontSize=16;fontFamily=Times New Roman;" vertex="1" parent="1">
          <mxGeometry x="766" y="589" width="140" height="30" as="geometry" />
        </mxCell>
        <mxCell id="rLXrD8BKvVp7syMXNVko-131" value="" style="rounded=0;whiteSpace=wrap;html=1;shadow=1;align=left;" vertex="1" parent="1">
          <mxGeometry x="767" y="619" width="243" height="30" as="geometry" />
        </mxCell>
        <mxCell id="rLXrD8BKvVp7syMXNVko-31" value="&lt;font style=&quot;font-size: 16px; color: rgb(255, 255, 255);&quot; face=&quot;Times New Roman&quot;&gt;Cancel&lt;/font&gt;" style="rounded=0;whiteSpace=wrap;html=1;strokeColor=none;fillColor=#1BA1E2;align=center;shadow=1;" vertex="1" parent="1">
          <mxGeometry x="640" y="700" width="140" height="50" as="geometry" />
        </mxCell>
        <mxCell id="rLXrD8BKvVp7syMXNVko-30" value="&lt;font face=&quot;Times New Roman&quot; color=&quot;#ffffff&quot;&gt;&lt;span style=&quot;font-size: 16px;&quot;&gt;Add New Employee&lt;/span&gt;&lt;/font&gt;" style="rounded=0;whiteSpace=wrap;html=1;strokeColor=none;fillColor=#1BA1E2;align=center;shadow=1;" vertex="1" parent="1">
          <mxGeometry x="420" y="700" width="140" height="50" as="geometry" />
        </mxCell>
        <mxCell id="rLXrD8BKvVp7syMXNVko-133" value="Female" style="text;html=1;align=left;verticalAlign=middle;whiteSpace=wrap;rounded=0;fontSize=16;fontFamily=Times New Roman;" vertex="1" parent="1">
          <mxGeometry x="258" y="352" width="100" height="30" as="geometry" />
        </mxCell>
        <mxCell id="rLXrD8BKvVp7syMXNVko-5" value="&lt;span style=&quot;font-size: 20px;&quot;&gt;Employee Registration Form&lt;/span&gt;" style="text;html=1;align=center;verticalAlign=middle;whiteSpace=wrap;rounded=0;fontSize=16;fontFamily=Times New Roman;" vertex="1" parent="1">
          <mxGeometry x="475.5" y="186" width="247" height="30" as="geometry" />
        </mxCell>
      </root>
    </mxGraphModel>
  </diagram>
</mxfile>
